<svg xmlns="http://www.w3.org/2000/svg" xmlns:xlink="http://www.w3.org/1999/xlink" width="500" zoomAndPan="magnify" viewBox="0 0 375 374.999991" height="500" preserveAspectRatio="xMidYMid meet" version="1.2"><defs><clipPath id="a93ee2592f"><path d="M 168 132 L 266 132 L 266 272.835938 L 168 272.835938 Z M 168 132 "/></clipPath><clipPath id="4bbe7efbf1"><path d="M 108.796875 101.835938 L 206 101.835938 L 206 243 L 108.796875 243 Z M 108.796875 101.835938 "/></clipPath><clipPath id="7576e37371"><path d="M 175 166.304688 L 191 166.304688 L 191 183 L 175 183 Z M 175 166.304688 "/></clipPath><clipPath id="7c9f344043"><path d="M 195 176 L 211.3125 176 L 211.3125 190 L 195 190 Z M 195 176 "/></clipPath><clipPath id="5119332c54"><path d="M 196 176 L 211.3125 176 L 211.3125 190 L 196 190 Z M 196 176 "/></clipPath><clipPath id="9e3de51cb8"><path d="M 163.3125 183 L 193 183 L 193 209 L 163.3125 209 Z M 163.3125 183 "/></clipPath><clipPath id="4fefe64095"><path d="M 163.3125 183 L 192 183 L 192 209 L 163.3125 209 Z M 163.3125 183 "/></clipPath></defs><g id="2e03e7dd38"><rect x="0" width="375" y="0" height="374.999991" style="fill:#ffffff;fill-opacity:1;stroke:none;"/><rect x="0" width="375" y="0" height="374.999991" style="fill:#000000;fill-opacity:1;stroke:none;"/><g clip-rule="nonzero" clip-path="url(#a93ee2592f)"><path style=" stroke:none;fill-rule:nonzero;fill:#ffffff;fill-opacity:1;" d="M 265.816406 272.171875 C 261.300781 264.96875 256.777344 257.769531 252.25 250.570312 L 245.457031 239.796875 L 238.640625 229.019531 L 224.984375 207.480469 L 212.171875 187.304688 L 228.667969 163.082031 L 233.011719 156.714844 C 234.464844 154.59375 235.90625 152.46875 237.371094 150.355469 L 246.144531 137.679688 L 249.691406 132.554688 L 202.902344 132.238281 L 201.917969 134 C 200.476562 136.582031 199.066406 139.179688 197.644531 141.769531 L 196.578125 143.71875 L 195.53125 145.671875 L 193.417969 149.574219 L 189.25 157.402344 L 187.125 161.441406 C 186.3125 160.210938 185.503906 158.980469 184.691406 157.753906 L 182.203125 154.03125 L 179.691406 150.324219 L 177.179688 146.625 L 174.632812 142.941406 C 172.925781 140.484375 171.195312 138.046875 169.4375 135.628906 C 169.386719 135.542969 169.3125 135.484375 169.214844 135.460938 C 169.117188 135.433594 169.027344 135.449219 168.941406 135.5 C 168.855469 135.550781 168.796875 135.621094 168.773438 135.71875 C 168.746094 135.816406 168.757812 135.910156 168.808594 135.996094 C 170.085938 138.695312 171.394531 141.382812 172.742188 144.050781 L 174.753906 148.050781 L 176.796875 152.039062 L 178.851562 156.015625 L 180.929688 159.976562 C 182.324219 162.613281 183.71875 165.25 185.136719 167.875 L 187.179688 171.660156 L 189.613281 167.84375 C 191.203125 165.347656 192.753906 162.839844 194.324219 160.332031 L 198.992188 152.796875 L 201.304688 149.011719 L 202.460938 147.128906 L 203.605469 145.242188 C 204.765625 143.324219 205.925781 141.410156 207.078125 139.488281 C 207.992188 139.488281 235.964844 139.378906 237.078125 139.359375 L 232.269531 146.992188 C 230.902344 149.167969 229.511719 151.324219 228.132812 153.496094 L 223.984375 159.988281 L 207.359375 185.957031 L 206.492188 187.304688 L 207.359375 188.5625 L 221.773438 209.601562 L 236.21875 230.617188 L 243.441406 241.121094 L 250.6875 251.613281 C 255.515625 258.617188 260.359375 265.605469 265.21875 272.578125 C 265.277344 272.660156 265.351562 272.710938 265.445312 272.726562 C 265.542969 272.746094 265.632812 272.730469 265.714844 272.675781 C 265.796875 272.621094 265.847656 272.546875 265.867188 272.449219 C 265.886719 272.355469 265.871094 272.265625 265.816406 272.183594 Z M 265.816406 272.171875 "/></g><g clip-rule="nonzero" clip-path="url(#4bbe7efbf1)"><path style=" stroke:none;fill-rule:nonzero;fill:#ffffff;fill-opacity:1;" d="M 201.988281 230.472656 L 199.976562 226.46875 L 197.9375 222.484375 L 195.878906 218.507812 L 193.804688 214.542969 C 192.40625 211.90625 191.015625 209.269531 189.59375 206.648438 L 187.550781 202.855469 L 185.117188 206.679688 C 183.527344 209.171875 181.976562 211.683594 180.40625 214.191406 L 175.738281 221.726562 L 173.425781 225.511719 L 172.265625 227.394531 L 171.125 229.277344 C 169.964844 231.199219 168.816406 233.117188 167.671875 235.035156 C 166.753906 235.035156 138.78125 235.144531 137.664062 235.164062 L 142.460938 227.53125 C 143.828125 225.355469 145.222656 223.195312 146.597656 221.027344 L 150.75 214.53125 L 167.375 188.566406 L 168.238281 187.214844 L 167.375 185.960938 L 152.960938 164.964844 L 138.515625 143.992188 L 131.292969 133.507812 L 124.039062 123.039062 C 119.21875 116.054688 114.375 109.085938 109.511719 102.125 C 109.457031 102.046875 109.382812 101.996094 109.289062 101.976562 C 109.195312 101.960938 109.109375 101.972656 109.027344 102.023438 C 108.945312 102.078125 108.890625 102.152344 108.871094 102.25 C 108.847656 102.34375 108.863281 102.433594 108.914062 102.519531 C 113.4375 109.707031 117.957031 116.890625 122.480469 124.074219 L 129.273438 134.839844 L 136.089844 145.59375 L 149.742188 167.089844 L 162.558594 187.21875 L 146.070312 211.441406 L 141.730469 217.808594 C 140.273438 219.925781 138.835938 222.054688 137.371094 224.167969 L 128.597656 236.847656 L 125.050781 241.972656 L 171.839844 242.285156 L 172.828125 240.507812 C 174.269531 237.925781 175.683594 235.328125 177.101562 232.738281 L 178.167969 230.792969 L 179.222656 228.839844 L 181.332031 224.941406 L 185.480469 217.121094 L 187.605469 213.085938 L 190.039062 216.769531 L 192.527344 220.488281 L 195.039062 224.199219 L 197.550781 227.898438 L 200.097656 231.582031 C 201.804688 234.035156 203.535156 236.472656 205.292969 238.894531 C 205.347656 238.96875 205.417969 239.011719 205.511719 239.03125 C 205.601562 239.050781 205.683594 239.035156 205.765625 238.988281 C 205.84375 238.941406 205.894531 238.875 205.921875 238.785156 C 205.949219 238.699219 205.945312 238.613281 205.90625 238.527344 C 204.640625 235.835938 203.335938 233.148438 201.988281 230.472656 Z M 201.988281 230.472656 "/></g><g style="fill:#ffffff;fill-opacity:1;"><g transform="translate(176.436907, 302.326267)"><path style="stroke:none" d="M 0.671875 -5.484375 L 3.421875 -5.484375 L 3.421875 -4.953125 L 1.21875 -4.953125 L 1.21875 -3.234375 L 3.421875 -3.234375 L 3.421875 -2.703125 L 1.21875 -2.703125 L 1.21875 0 L 0.671875 0 Z M 0.671875 -5.484375 "/></g></g><g style="fill:#ffffff;fill-opacity:1;"><g transform="translate(180.525175, 302.326267)"><path style="stroke:none" d=""/></g></g><g style="fill:#ffffff;fill-opacity:1;"><g transform="translate(183.023263, 302.326267)"><path style="stroke:none" d=""/></g></g><g style="fill:#ffffff;fill-opacity:1;"><g transform="translate(185.528578, 302.326267)"><path style="stroke:none" d="M 0.671875 -5.484375 L 1.21875 -5.484375 L 1.21875 0 L 0.671875 0 Z M 0.671875 -5.484375 "/></g></g><g style="fill:#ffffff;fill-opacity:1;"><g transform="translate(187.786576, 302.326267)"><path style="stroke:none" d=""/></g></g><g style="fill:#ffffff;fill-opacity:1;"><g transform="translate(190.284664, 302.326267)"><path style="stroke:none" d=""/></g></g><g style="fill:#ffffff;fill-opacity:1;"><g transform="translate(192.782752, 302.326267)"><path style="stroke:none" d=""/></g></g><g style="fill:#ffffff;fill-opacity:1;"><g transform="translate(195.286707, 302.326267)"><path style="stroke:none" d="M 1.359375 -4.953125 L 0.125 -4.953125 L 0.125 -5.484375 L 3.125 -5.484375 L 3.125 -4.953125 L 1.90625 -4.953125 L 1.90625 0 L 1.359375 0 Z M 1.359375 -4.953125 "/></g></g><g style="fill:#ffffff;fill-opacity:1;"><g transform="translate(132.362401, 286.959075)"><path style="stroke:none" d="M 6 0.234375 C 4.945312 0.234375 4.019531 0.00390625 3.21875 -0.453125 C 2.425781 -0.910156 1.816406 -1.53125 1.390625 -2.3125 C 0.972656 -3.09375 0.765625 -3.960938 0.765625 -4.921875 C 0.765625 -5.867188 0.988281 -6.722656 1.4375 -7.484375 C 1.882812 -8.253906 2.507812 -8.859375 3.3125 -9.296875 C 4.113281 -9.742188 5.007812 -9.96875 6 -9.96875 C 6.882812 -9.96875 7.6875 -9.789062 8.40625 -9.4375 C 9.132812 -9.09375 9.734375 -8.585938 10.203125 -7.921875 L 9.421875 -7.34375 C 9.015625 -7.894531 8.519531 -8.3125 7.9375 -8.59375 C 7.351562 -8.875 6.710938 -9.015625 6.015625 -9.015625 C 5.242188 -9.015625 4.535156 -8.835938 3.890625 -8.484375 C 3.242188 -8.128906 2.726562 -7.632812 2.34375 -7 C 1.96875 -6.363281 1.78125 -5.644531 1.78125 -4.84375 C 1.78125 -4.039062 1.96875 -3.320312 2.34375 -2.6875 C 2.71875 -2.0625 3.226562 -1.566406 3.875 -1.203125 C 4.53125 -0.835938 5.257812 -0.65625 6.0625 -0.65625 C 6.738281 -0.65625 7.363281 -0.789062 7.9375 -1.0625 C 8.519531 -1.34375 9.035156 -1.75 9.484375 -2.28125 L 10.25 -1.6875 C 9.757812 -1.0625 9.148438 -0.582031 8.421875 -0.25 C 7.691406 0.0703125 6.882812 0.234375 6 0.234375 Z M 6 0.234375 "/></g></g><g style="fill:#ffffff;fill-opacity:1;"><g transform="translate(154.230584, 286.959075)"><path style="stroke:none" d="M 8.328125 0 L 6.84375 -3.203125 L 2.578125 -3.203125 L 1.078125 0 L 0.0625 0 L 4.609375 -9.734375 L 4.84375 -9.734375 L 9.34375 0 Z M 3 -4.125 L 6.40625 -4.125 L 4.71875 -7.765625 Z M 3 -4.125 "/></g></g><g style="fill:#ffffff;fill-opacity:1;"><g transform="translate(174.486996, 286.959075)"><path style="stroke:none" d="M 11.703125 0 L 10.75 0 L 9.859375 -6.609375 L 9.8125 -6.96875 L 9.640625 -6.625 L 6.359375 0 L 6.125 0 L 2.796875 -6.640625 L 2.625 -7 L 2.578125 -6.59375 L 1.6875 0 L 0.75 0 L 2.125 -9.734375 L 2.296875 -9.734375 L 6.09375 -2.0625 L 6.25 -1.75 L 6.40625 -2.078125 L 10.15625 -9.734375 L 10.328125 -9.734375 Z M 11.703125 0 "/></g></g><g style="fill:#ffffff;fill-opacity:1;"><g transform="translate(197.777319, 286.959075)"><path style="stroke:none" d="M 3.8125 -9.734375 C 4.882812 -9.734375 5.726562 -9.539062 6.34375 -9.15625 C 6.96875 -8.78125 7.28125 -8.109375 7.28125 -7.140625 C 7.28125 -6.148438 6.957031 -5.46875 6.3125 -5.09375 C 5.664062 -4.71875 4.800781 -4.53125 3.71875 -4.53125 L 2.15625 -4.53125 L 2.15625 0 L 1.171875 0 L 1.171875 -9.734375 Z M 3.765625 -5.46875 C 4.285156 -5.46875 4.726562 -5.515625 5.09375 -5.609375 C 5.457031 -5.703125 5.742188 -5.867188 5.953125 -6.109375 C 6.160156 -6.359375 6.265625 -6.703125 6.265625 -7.140625 C 6.265625 -7.753906 6.050781 -8.179688 5.625 -8.421875 C 5.207031 -8.660156 4.625 -8.78125 3.875 -8.78125 L 2.15625 -8.78125 L 2.15625 -5.46875 Z M 3.765625 -5.46875 "/></g></g><g style="fill:#ffffff;fill-opacity:1;"><g transform="translate(216.300072, 286.959075)"><path style="stroke:none" d="M 4.4375 0.25 C 3.78125 0.25 3.207031 0.101562 2.71875 -0.1875 C 2.238281 -0.476562 1.867188 -0.894531 1.609375 -1.4375 C 1.347656 -1.988281 1.21875 -2.644531 1.21875 -3.40625 L 1.21875 -9.734375 L 2.1875 -9.734375 L 2.1875 -3.203125 C 2.1875 -2.722656 2.269531 -2.296875 2.4375 -1.921875 C 2.613281 -1.546875 2.867188 -1.25 3.203125 -1.03125 C 3.546875 -0.8125 3.957031 -0.703125 4.4375 -0.703125 C 4.9375 -0.703125 5.351562 -0.8125 5.6875 -1.03125 C 6.019531 -1.25 6.269531 -1.546875 6.4375 -1.921875 C 6.601562 -2.296875 6.6875 -2.710938 6.6875 -3.171875 L 6.6875 -9.734375 L 7.671875 -9.734375 L 7.671875 -3.40625 C 7.671875 -2.644531 7.535156 -1.988281 7.265625 -1.4375 C 7.003906 -0.894531 6.632812 -0.476562 6.15625 -0.1875 C 5.675781 0.101562 5.101562 0.25 4.4375 0.25 Z M 4.4375 0.25 "/></g></g><g style="fill:#ffffff;fill-opacity:1;"><g transform="translate(236.014724, 286.959075)"><path style="stroke:none" d="M 3.28125 0.25 C 2.625 0.25 2.0625 0.078125 1.59375 -0.265625 C 1.125 -0.609375 0.707031 -1.125 0.34375 -1.8125 L 1.171875 -2.3125 C 1.453125 -1.78125 1.765625 -1.378906 2.109375 -1.109375 C 2.453125 -0.835938 2.816406 -0.703125 3.203125 -0.703125 C 3.535156 -0.703125 3.835938 -0.773438 4.109375 -0.921875 C 4.390625 -1.078125 4.609375 -1.28125 4.765625 -1.53125 C 4.921875 -1.78125 5 -2.054688 5 -2.359375 C 5 -2.648438 4.914062 -2.925781 4.75 -3.1875 C 4.582031 -3.445312 4.335938 -3.710938 4.015625 -3.984375 C 3.703125 -4.265625 3.15625 -4.71875 2.375 -5.34375 C 2.019531 -5.625 1.742188 -5.875 1.546875 -6.09375 C 1.359375 -6.3125 1.210938 -6.546875 1.109375 -6.796875 C 1.015625 -7.046875 0.96875 -7.34375 0.96875 -7.6875 C 0.96875 -8.125 1.066406 -8.515625 1.265625 -8.859375 C 1.472656 -9.210938 1.757812 -9.484375 2.125 -9.671875 C 2.488281 -9.867188 2.882812 -9.96875 3.3125 -9.96875 C 3.851562 -9.96875 4.320312 -9.828125 4.71875 -9.546875 C 5.113281 -9.273438 5.492188 -8.890625 5.859375 -8.390625 L 5.078125 -7.78125 C 4.867188 -8.050781 4.679688 -8.265625 4.515625 -8.421875 C 4.359375 -8.585938 4.175781 -8.71875 3.96875 -8.8125 C 3.769531 -8.914062 3.546875 -8.96875 3.296875 -8.96875 C 3.023438 -8.96875 2.789062 -8.910156 2.59375 -8.796875 C 2.394531 -8.679688 2.242188 -8.53125 2.140625 -8.34375 C 2.035156 -8.15625 1.984375 -7.953125 1.984375 -7.734375 C 1.984375 -7.429688 2.070312 -7.144531 2.25 -6.875 C 2.425781 -6.601562 2.6875 -6.34375 3.03125 -6.09375 C 3.757812 -5.570312 4.316406 -5.140625 4.703125 -4.796875 C 5.097656 -4.453125 5.414062 -4.082031 5.65625 -3.6875 C 5.894531 -3.289062 6.015625 -2.851562 6.015625 -2.375 C 6.015625 -1.914062 5.894531 -1.484375 5.65625 -1.078125 C 5.414062 -0.679688 5.085938 -0.359375 4.671875 -0.109375 C 4.253906 0.128906 3.789062 0.25 3.28125 0.25 Z M 3.28125 0.25 "/></g></g><g clip-rule="nonzero" clip-path="url(#7576e37371)"><path style="fill:none;stroke-width:0.1;stroke-linecap:butt;stroke-linejoin:miter;stroke:#000000;stroke-opacity:1;stroke-miterlimit:10;" d="M 181.267228 52.755454 C 199.712046 44.553479 220.08221 50.17549 237.564354 58.762534 C 257.010351 68.928363 276.918432 83.753529 284.889366 106.973205 C 288.47051 116.445909 286.121587 127.535904 279.960479 134.96774 C 275.108607 139.550065 268.254374 138.279336 262.439828 137.624718 C 249.270459 134.46715 241.184005 121.45181 230.941163 112.903272 C 222.08457 104.239214 212.611866 94.805017 200.597705 92.417587 C 189.89278 90.453734 180.574104 98.347654 173.719871 106.511122 C 163.361508 120.681671 156.853837 137.740239 151.770923 154.914328 C 148.459327 169.932029 141.41256 184.256606 142.259712 200.082952 C 141.258532 185.488827 137.484854 171.279772 137.138291 156.570126 C 136.483673 137.663225 138.640061 118.640804 142.91433 100.350014 C 150.731236 80.711482 162.860918 61.303991 181.267228 52.755454 Z M 181.267228 52.755454 " transform="matrix(0.101443,0,0,0.101443,161.338309,161.788965)"/><path style=" stroke:none;fill-rule:nonzero;fill:#ffffff;fill-opacity:1;" d="M 179.726562 167.140625 C 181.597656 166.308594 183.664062 166.878906 185.4375 167.75 C 187.410156 168.78125 189.429688 170.285156 190.238281 172.640625 C 190.601562 173.601562 190.363281 174.726562 189.738281 175.480469 C 189.246094 175.945312 188.550781 175.816406 187.960938 175.75 C 186.625 175.429688 185.804688 174.109375 184.765625 173.242188 C 183.867188 172.363281 182.90625 171.40625 181.6875 171.164062 C 180.601562 170.964844 179.65625 171.765625 178.960938 172.59375 C 177.910156 174.03125 177.25 175.761719 176.734375 177.503906 C 176.398438 179.027344 175.683594 180.480469 175.769531 182.085938 C 175.667969 180.605469 175.285156 179.164062 175.25 177.671875 C 175.183594 175.753906 175.402344 173.824219 175.835938 171.96875 C 176.628906 169.976562 177.859375 168.007812 179.726562 167.140625 Z M 179.726562 167.140625 "/></g><path style="fill:none;stroke-width:0.1;stroke-linecap:butt;stroke-linejoin:miter;stroke:#000000;stroke-opacity:1;stroke-miterlimit:10;" d="M 349.46548 65.308712 C 362.788877 63.5759 376.843905 69.390446 385.816018 80.557454 C 391.900113 88.913457 395.981847 99.387341 395.904833 110.207787 C 394.711118 123.377156 388.781052 136.392497 378.807758 143.939854 C 367.101653 153.181516 351.082771 155.106863 337.874896 148.714713 C 318.274871 140.435724 306.87682 112.402682 316.965635 91.185366 C 322.626153 76.783776 335.680001 67.426593 349.46548 65.308712 Z M 349.46548 65.308712 " transform="matrix(0.101443,0,0,0.101443,161.338309,161.788965)"/><path style=" stroke:none;fill-rule:nonzero;fill:#ffffff;fill-opacity:1;" d="M 196.789062 168.414062 C 198.140625 168.238281 199.566406 168.828125 200.476562 169.960938 C 201.09375 170.808594 201.507812 171.871094 201.5 172.96875 C 201.378906 174.304688 200.777344 175.625 199.765625 176.390625 C 198.578125 177.328125 196.953125 177.523438 195.613281 176.875 C 193.625 176.035156 192.46875 173.191406 193.492188 171.039062 C 194.066406 169.578125 195.390625 168.628906 196.789062 168.414062 Z M 196.789062 168.414062 "/><g clip-rule="nonzero" clip-path="url(#7c9f344043)"><path style="fill:none;stroke-width:0.1;stroke-linecap:butt;stroke-linejoin:miter;stroke:#000000;stroke-opacity:1;stroke-miterlimit:10;" d="M 488.475483 141.821973 C 489.245621 141.783466 490.054267 141.744959 490.862912 141.783466 C 490.51635 149.600372 492.364682 157.378771 491.209475 165.15717 C 489.361142 178.557581 484.509269 191.110838 479.272328 203.202013 C 467.72025 231.812659 445.92533 255.417405 419.509579 266.507399 C 407.379897 271.282258 392.978307 270.897189 382.04234 262.772227 C 364.367661 249.949421 350.466661 230.387903 344.382566 207.784337 C 340.531874 195.577642 340.416353 180.94501 347.039544 169.855015 C 350.35114 165.04165 354.817943 159.612173 360.786517 159.958735 C 366.986132 160.613353 372.492622 164.733594 376.227794 170.124564 C 385.007373 182.94737 386.855705 199.620869 394.095008 213.290828 C 400.140595 222.108914 409.921354 232.621304 420.780307 227.461376 C 433.834155 221.300268 444.808629 210.864891 455.43654 200.660556 C 468.836951 187.799243 478.194134 170.702168 485.62597 153.065996 C 487.12774 149.523358 488.167427 145.74968 488.475483 141.821973 Z M 488.475483 141.821973 " transform="matrix(0.101443,0,0,0.101443,161.338309,161.788965)"/></g><g clip-rule="nonzero" clip-path="url(#5119332c54)"><path style=" stroke:none;fill-rule:nonzero;fill:#ffffff;fill-opacity:1;" d="M 210.890625 176.175781 C 210.96875 176.171875 211.050781 176.167969 211.132812 176.171875 C 211.097656 176.964844 211.285156 177.753906 211.167969 178.542969 C 210.980469 179.902344 210.488281 181.175781 209.957031 182.402344 C 208.785156 185.304688 206.574219 187.699219 203.894531 188.824219 C 202.664062 189.308594 201.203125 189.269531 200.09375 188.445312 C 198.300781 187.144531 196.890625 185.160156 196.273438 182.867188 C 195.882812 181.628906 195.871094 180.144531 196.542969 179.019531 C 196.878906 178.53125 197.332031 177.980469 197.9375 178.015625 C 198.566406 178.082031 199.125 178.5 199.503906 179.046875 C 200.394531 180.347656 200.582031 182.039062 201.316406 183.425781 C 201.929688 184.320312 202.921875 185.386719 204.023438 184.863281 C 205.347656 184.238281 206.460938 183.179688 207.539062 182.144531 C 208.898438 180.839844 209.847656 179.105469 210.601562 177.316406 C 210.753906 176.957031 210.859375 176.574219 210.890625 176.175781 Z M 210.890625 176.175781 "/></g><g clip-rule="nonzero" clip-path="url(#9e3de51cb8)"><path style="fill:none;stroke-width:0.1;stroke-linecap:butt;stroke-linejoin:miter;stroke:#000000;stroke-opacity:1;stroke-miterlimit:10;" d="M 162.398835 223.803218 C 170.177234 216.486903 181.613791 217.218534 190.662918 220.876692 C 199.712046 225.150961 209.30027 228.462557 217.579259 234.546651 C 230.440573 243.711299 242.724282 253.992648 253.698756 265.814275 C 266.136493 276.981283 277.650064 289.41902 287.546344 303.397034 C 294.824153 312.946752 302.448524 324.075253 301.87092 337.283129 C 296.47995 356.536592 281.654784 370.630127 266.213507 380.025817 C 245.766329 391.616401 222.931722 396.198726 201.059788 403.284 C 191.587084 406.672609 181.652298 407.943338 171.833031 409.098546 C 160.666023 409.79167 149.460507 412.333128 138.332006 410.138233 C 145.455787 404.362194 154.119846 401.820737 161.936751 397.546468 C 184.463303 386.726022 205.642112 372.863529 227.59106 360.733847 C 236.909736 355.727947 245.997371 349.335797 251.311326 339.169968 C 251.041778 336.936567 250.733723 334.703165 250.464174 332.469763 C 244.226052 325.422996 236.524667 320.417095 228.59224 316.142827 C 219.312071 324.691364 208.607146 331.160528 200.058608 340.671738 C 176.646397 360.079229 150.731236 375.289465 125.740241 392.078485 C 92.162202 413.064759 60.355481 437.555164 26.122824 457.309217 C 24.120464 458.117862 22.079597 458.733973 19.961716 459.157549 C 33.131084 443.254189 48.456841 429.661244 61.395168 413.526842 C 80.071027 391.770429 98.746886 370.014016 118.269898 349.143262 C 138.832596 327.078794 158.856197 304.398214 177.917126 280.716455 C 169.869178 272.437466 159.510815 264.851601 157.046372 252.144316 C 154.735956 242.556091 156.083699 231.235055 162.398835 223.803218 Z M 162.398835 223.803218 " transform="matrix(0.101443,0,0,0.101443,161.338309,161.788965)"/></g><g clip-rule="nonzero" clip-path="url(#4fefe64095)"><path style=" stroke:none;fill-rule:nonzero;fill:#ffffff;fill-opacity:1;" d="M 177.8125 184.492188 C 178.601562 183.75 179.761719 183.824219 180.679688 184.195312 C 181.597656 184.628906 182.570312 184.964844 183.410156 185.582031 C 184.714844 186.511719 185.960938 187.554688 187.074219 188.753906 C 188.335938 189.886719 189.503906 191.148438 190.507812 192.566406 C 191.246094 193.535156 192.019531 194.664062 191.960938 196.003906 C 191.414062 197.957031 189.910156 199.386719 188.34375 200.339844 C 186.269531 201.515625 183.953125 201.980469 181.734375 202.699219 C 180.773438 203.042969 179.765625 203.171875 178.769531 203.289062 C 177.636719 203.359375 176.5 203.617188 175.371094 203.394531 C 176.09375 202.808594 176.972656 202.550781 177.765625 202.117188 C 180.050781 201.019531 182.199219 199.613281 184.425781 198.382812 C 185.371094 197.875 186.292969 197.226562 186.832031 196.195312 C 186.804688 195.96875 186.773438 195.742188 186.746094 195.515625 C 186.113281 194.800781 185.332031 194.292969 184.527344 193.859375 C 183.585938 194.726562 182.5 195.382812 181.632812 196.347656 C 179.257812 198.316406 176.628906 199.859375 174.09375 201.5625 C 170.6875 203.691406 167.460938 206.175781 163.988281 208.179688 C 163.785156 208.261719 163.578125 208.324219 163.363281 208.367188 C 164.699219 206.753906 166.253906 205.375 167.566406 203.738281 C 169.460938 201.53125 171.355469 199.324219 173.335938 197.207031 C 175.421875 194.96875 177.453125 192.667969 179.386719 190.265625 C 178.570312 189.425781 177.519531 188.65625 177.269531 187.367188 C 177.035156 186.394531 177.171875 185.246094 177.8125 184.492188 Z M 177.8125 184.492188 "/></g></g></svg>