<svg xmlns="http://www.w3.org/2000/svg" xmlns:xlink="http://www.w3.org/1999/xlink" width="500" zoomAndPan="magnify" viewBox="0 0 375 374.999991" height="500" preserveAspectRatio="xMidYMid meet" version="1.2"><defs><clipPath id="73feb8f153"><path d="M 168 132 L 266.296875 132 L 266.296875 272.835938 L 168 272.835938 Z M 168 132 "/></clipPath><clipPath id="54e67220ec"><path d="M 108.796875 101.835938 L 207 101.835938 L 207 243 L 108.796875 243 Z M 108.796875 101.835938 "/></clipPath><clipPath id="d38667f5ef"><path d="M 175 166.304688 L 191 166.304688 L 191 183 L 175 183 Z M 175 166.304688 "/></clipPath><clipPath id="5dba1aa907"><path d="M 195 176 L 211.3125 176 L 211.3125 190 L 195 190 Z M 195 176 "/></clipPath><clipPath id="1fb81a4978"><path d="M 196 176 L 211.3125 176 L 211.3125 190 L 196 190 Z M 196 176 "/></clipPath><clipPath id="029da5f855"><path d="M 163.3125 184 L 193 184 L 193 209.054688 L 163.3125 209.054688 Z M 163.3125 184 "/></clipPath><clipPath id="a21b3ecb19"><path d="M 163.3125 184 L 192 184 L 192 209.054688 L 163.3125 209.054688 Z M 163.3125 184 "/></clipPath></defs><g id="4c6c68d7ad"><rect x="0" width="375" y="0" height="374.999991" style="fill:#ffffff;fill-opacity:1;stroke:none;"/><rect x="0" width="375" y="0" height="374.999991" style="fill:#ffffff;fill-opacity:1;stroke:none;"/><g clip-rule="nonzero" clip-path="url(#73feb8f153)"><path style=" stroke:none;fill-rule:nonzero;fill:#000000;fill-opacity:1;" d="M 266.210938 272.171875 C 261.683594 264.96875 257.152344 257.769531 252.613281 250.570312 L 245.804688 239.796875 L 238.96875 229.019531 L 225.277344 207.480469 L 212.433594 187.304688 L 228.96875 163.082031 L 233.324219 156.714844 C 234.78125 154.59375 236.226562 152.46875 237.695312 150.355469 L 246.488281 137.679688 L 250.046875 132.554688 L 203.140625 132.238281 L 202.152344 134 C 200.707031 136.582031 199.292969 139.179688 197.867188 141.769531 L 196.800781 143.71875 L 195.75 145.671875 L 193.632812 149.574219 L 189.453125 157.402344 L 187.320312 161.441406 C 186.507812 160.210938 185.695312 158.980469 184.882812 157.753906 L 182.386719 154.03125 L 179.871094 150.324219 L 177.351562 146.625 L 174.796875 142.941406 C 173.085938 140.484375 171.351562 138.046875 169.589844 135.628906 C 169.539062 135.542969 169.464844 135.484375 169.367188 135.460938 C 169.269531 135.433594 169.179688 135.449219 169.09375 135.5 C 169.003906 135.550781 168.949219 135.621094 168.921875 135.71875 C 168.898438 135.816406 168.910156 135.910156 168.960938 135.996094 C 170.238281 138.695312 171.554688 141.382812 172.902344 144.050781 L 174.921875 148.050781 L 176.96875 152.039062 L 179.027344 156.015625 L 181.109375 159.976562 C 182.511719 162.613281 183.910156 165.25 185.328125 167.875 L 187.378906 171.660156 L 189.816406 167.84375 C 191.410156 165.347656 192.964844 162.839844 194.539062 160.332031 L 199.21875 152.796875 L 201.539062 149.011719 L 202.695312 147.128906 L 203.84375 145.242188 C 205.007812 143.324219 206.171875 141.410156 207.324219 139.488281 C 208.242188 139.488281 236.285156 139.378906 237.402344 139.359375 L 232.582031 146.992188 C 231.210938 149.167969 229.816406 151.324219 228.433594 153.496094 L 224.273438 159.988281 L 207.609375 185.957031 L 206.738281 187.304688 L 207.609375 188.5625 L 222.058594 209.601562 L 236.539062 230.617188 L 243.78125 241.121094 L 251.046875 251.613281 C 255.886719 258.617188 260.742188 265.605469 265.613281 272.578125 C 265.671875 272.660156 265.746094 272.710938 265.84375 272.726562 C 265.9375 272.746094 266.027344 272.730469 266.109375 272.675781 C 266.191406 272.621094 266.242188 272.546875 266.261719 272.449219 C 266.28125 272.355469 266.265625 272.265625 266.210938 272.183594 Z M 266.210938 272.171875 "/></g><g clip-rule="nonzero" clip-path="url(#54e67220ec)"><path style=" stroke:none;fill-rule:nonzero;fill:#000000;fill-opacity:1;" d="M 202.222656 230.472656 L 200.207031 226.46875 L 198.164062 222.484375 L 196.097656 218.507812 L 194.015625 214.542969 C 192.617188 211.90625 191.222656 209.269531 189.796875 206.648438 L 187.75 202.855469 L 185.308594 206.679688 C 183.714844 209.171875 182.160156 211.683594 180.585938 214.191406 L 175.90625 221.726562 L 173.589844 225.511719 L 172.425781 227.394531 L 171.28125 229.277344 C 170.121094 231.199219 168.964844 233.117188 167.820312 235.035156 C 166.898438 235.035156 138.855469 235.144531 137.738281 235.164062 L 142.546875 227.53125 C 143.917969 225.355469 145.3125 223.195312 146.695312 221.027344 L 150.855469 214.53125 L 167.523438 188.566406 L 168.386719 187.214844 L 167.523438 185.960938 L 153.074219 164.964844 L 138.589844 143.992188 L 131.351562 133.507812 L 124.078125 123.039062 C 119.242188 116.054688 114.386719 109.085938 109.511719 102.125 C 109.457031 102.046875 109.382812 101.996094 109.289062 101.976562 C 109.195312 101.960938 109.109375 101.972656 109.027344 102.023438 C 108.945312 102.078125 108.890625 102.152344 108.871094 102.25 C 108.847656 102.34375 108.863281 102.433594 108.914062 102.519531 C 113.449219 109.707031 117.980469 116.890625 122.515625 124.074219 L 129.324219 134.839844 L 136.15625 145.59375 L 149.847656 167.089844 L 162.695312 187.21875 L 146.164062 211.441406 L 141.8125 217.808594 C 140.355469 219.925781 138.914062 222.054688 137.441406 224.167969 L 128.648438 236.847656 L 125.09375 241.972656 L 172 242.285156 L 172.992188 240.507812 C 174.4375 237.925781 175.851562 235.328125 177.277344 232.738281 L 178.34375 230.792969 L 179.402344 228.839844 L 181.515625 224.941406 L 185.675781 217.121094 L 187.804688 213.085938 L 190.246094 216.769531 L 192.738281 220.488281 L 195.257812 224.199219 L 197.777344 227.898438 L 200.328125 231.582031 C 202.039062 234.035156 203.773438 236.472656 205.535156 238.894531 C 205.589844 238.96875 205.664062 239.011719 205.753906 239.03125 C 205.84375 239.050781 205.929688 239.035156 206.007812 238.988281 C 206.085938 238.941406 206.140625 238.875 206.167969 238.785156 C 206.195312 238.699219 206.1875 238.613281 206.148438 238.527344 C 204.882812 235.835938 203.574219 233.148438 202.222656 230.472656 Z M 202.222656 230.472656 "/></g><g style="fill:#000000;fill-opacity:1;"><g transform="translate(176.436907, 302.326267)"><path style="stroke:none" d="M 0.671875 -5.484375 L 3.421875 -5.484375 L 3.421875 -4.953125 L 1.21875 -4.953125 L 1.21875 -3.234375 L 3.421875 -3.234375 L 3.421875 -2.703125 L 1.21875 -2.703125 L 1.21875 0 L 0.671875 0 Z M 0.671875 -5.484375 "/></g></g><g style="fill:#000000;fill-opacity:1;"><g transform="translate(180.525175, 302.326267)"><path style="stroke:none" d=""/></g></g><g style="fill:#000000;fill-opacity:1;"><g transform="translate(183.023263, 302.326267)"><path style="stroke:none" d=""/></g></g><g style="fill:#000000;fill-opacity:1;"><g transform="translate(185.528578, 302.326267)"><path style="stroke:none" d="M 0.671875 -5.484375 L 1.21875 -5.484375 L 1.21875 0 L 0.671875 0 Z M 0.671875 -5.484375 "/></g></g><g style="fill:#000000;fill-opacity:1;"><g transform="translate(187.786576, 302.326267)"><path style="stroke:none" d=""/></g></g><g style="fill:#000000;fill-opacity:1;"><g transform="translate(190.284664, 302.326267)"><path style="stroke:none" d=""/></g></g><g style="fill:#000000;fill-opacity:1;"><g transform="translate(192.782752, 302.326267)"><path style="stroke:none" d=""/></g></g><g style="fill:#000000;fill-opacity:1;"><g transform="translate(195.286707, 302.326267)"><path style="stroke:none" d="M 1.359375 -4.953125 L 0.125 -4.953125 L 0.125 -5.484375 L 3.125 -5.484375 L 3.125 -4.953125 L 1.90625 -4.953125 L 1.90625 0 L 1.359375 0 Z M 1.359375 -4.953125 "/></g></g><g style="fill:#000000;fill-opacity:1;"><g transform="translate(132.362401, 286.959075)"><path style="stroke:none" d="M 6 0.234375 C 4.945312 0.234375 4.019531 0.00390625 3.21875 -0.453125 C 2.425781 -0.910156 1.816406 -1.53125 1.390625 -2.3125 C 0.972656 -3.09375 0.765625 -3.960938 0.765625 -4.921875 C 0.765625 -5.867188 0.988281 -6.722656 1.4375 -7.484375 C 1.882812 -8.253906 2.507812 -8.859375 3.3125 -9.296875 C 4.113281 -9.742188 5.007812 -9.96875 6 -9.96875 C 6.882812 -9.96875 7.6875 -9.789062 8.40625 -9.4375 C 9.132812 -9.09375 9.734375 -8.585938 10.203125 -7.921875 L 9.421875 -7.34375 C 9.015625 -7.894531 8.519531 -8.3125 7.9375 -8.59375 C 7.351562 -8.875 6.710938 -9.015625 6.015625 -9.015625 C 5.242188 -9.015625 4.535156 -8.835938 3.890625 -8.484375 C 3.242188 -8.128906 2.726562 -7.632812 2.34375 -7 C 1.96875 -6.363281 1.78125 -5.644531 1.78125 -4.84375 C 1.78125 -4.039062 1.96875 -3.320312 2.34375 -2.6875 C 2.71875 -2.0625 3.226562 -1.566406 3.875 -1.203125 C 4.53125 -0.835938 5.257812 -0.65625 6.0625 -0.65625 C 6.738281 -0.65625 7.363281 -0.789062 7.9375 -1.0625 C 8.519531 -1.34375 9.035156 -1.75 9.484375 -2.28125 L 10.25 -1.6875 C 9.757812 -1.0625 9.148438 -0.582031 8.421875 -0.25 C 7.691406 0.0703125 6.882812 0.234375 6 0.234375 Z M 6 0.234375 "/></g></g><g style="fill:#000000;fill-opacity:1;"><g transform="translate(154.230584, 286.959075)"><path style="stroke:none" d="M 8.328125 0 L 6.84375 -3.203125 L 2.578125 -3.203125 L 1.078125 0 L 0.0625 0 L 4.609375 -9.734375 L 4.84375 -9.734375 L 9.34375 0 Z M 3 -4.125 L 6.40625 -4.125 L 4.71875 -7.765625 Z M 3 -4.125 "/></g></g><g style="fill:#000000;fill-opacity:1;"><g transform="translate(174.486996, 286.959075)"><path style="stroke:none" d="M 11.703125 0 L 10.75 0 L 9.859375 -6.609375 L 9.8125 -6.96875 L 9.640625 -6.625 L 6.359375 0 L 6.125 0 L 2.796875 -6.640625 L 2.625 -7 L 2.578125 -6.59375 L 1.6875 0 L 0.75 0 L 2.125 -9.734375 L 2.296875 -9.734375 L 6.09375 -2.0625 L 6.25 -1.75 L 6.40625 -2.078125 L 10.15625 -9.734375 L 10.328125 -9.734375 Z M 11.703125 0 "/></g></g><g style="fill:#000000;fill-opacity:1;"><g transform="translate(197.777319, 286.959075)"><path style="stroke:none" d="M 3.8125 -9.734375 C 4.882812 -9.734375 5.726562 -9.539062 6.34375 -9.15625 C 6.96875 -8.78125 7.28125 -8.109375 7.28125 -7.140625 C 7.28125 -6.148438 6.957031 -5.46875 6.3125 -5.09375 C 5.664062 -4.71875 4.800781 -4.53125 3.71875 -4.53125 L 2.15625 -4.53125 L 2.15625 0 L 1.171875 0 L 1.171875 -9.734375 Z M 3.765625 -5.46875 C 4.285156 -5.46875 4.726562 -5.515625 5.09375 -5.609375 C 5.457031 -5.703125 5.742188 -5.867188 5.953125 -6.109375 C 6.160156 -6.359375 6.265625 -6.703125 6.265625 -7.140625 C 6.265625 -7.753906 6.050781 -8.179688 5.625 -8.421875 C 5.207031 -8.660156 4.625 -8.78125 3.875 -8.78125 L 2.15625 -8.78125 L 2.15625 -5.46875 Z M 3.765625 -5.46875 "/></g></g><g style="fill:#000000;fill-opacity:1;"><g transform="translate(216.300072, 286.959075)"><path style="stroke:none" d="M 4.4375 0.25 C 3.78125 0.25 3.207031 0.101562 2.71875 -0.1875 C 2.238281 -0.476562 1.867188 -0.894531 1.609375 -1.4375 C 1.347656 -1.988281 1.21875 -2.644531 1.21875 -3.40625 L 1.21875 -9.734375 L 2.1875 -9.734375 L 2.1875 -3.203125 C 2.1875 -2.722656 2.269531 -2.296875 2.4375 -1.921875 C 2.613281 -1.546875 2.867188 -1.25 3.203125 -1.03125 C 3.546875 -0.8125 3.957031 -0.703125 4.4375 -0.703125 C 4.9375 -0.703125 5.351562 -0.8125 5.6875 -1.03125 C 6.019531 -1.25 6.269531 -1.546875 6.4375 -1.921875 C 6.601562 -2.296875 6.6875 -2.710938 6.6875 -3.171875 L 6.6875 -9.734375 L 7.671875 -9.734375 L 7.671875 -3.40625 C 7.671875 -2.644531 7.535156 -1.988281 7.265625 -1.4375 C 7.003906 -0.894531 6.632812 -0.476562 6.15625 -0.1875 C 5.675781 0.101562 5.101562 0.25 4.4375 0.25 Z M 4.4375 0.25 "/></g></g><g style="fill:#000000;fill-opacity:1;"><g transform="translate(236.014724, 286.959075)"><path style="stroke:none" d="M 3.28125 0.25 C 2.625 0.25 2.0625 0.078125 1.59375 -0.265625 C 1.125 -0.609375 0.707031 -1.125 0.34375 -1.8125 L 1.171875 -2.3125 C 1.453125 -1.78125 1.765625 -1.378906 2.109375 -1.109375 C 2.453125 -0.835938 2.816406 -0.703125 3.203125 -0.703125 C 3.535156 -0.703125 3.835938 -0.773438 4.109375 -0.921875 C 4.390625 -1.078125 4.609375 -1.28125 4.765625 -1.53125 C 4.921875 -1.78125 5 -2.054688 5 -2.359375 C 5 -2.648438 4.914062 -2.925781 4.75 -3.1875 C 4.582031 -3.445312 4.335938 -3.710938 4.015625 -3.984375 C 3.703125 -4.265625 3.15625 -4.71875 2.375 -5.34375 C 2.019531 -5.625 1.742188 -5.875 1.546875 -6.09375 C 1.359375 -6.3125 1.210938 -6.546875 1.109375 -6.796875 C 1.015625 -7.046875 0.96875 -7.34375 0.96875 -7.6875 C 0.96875 -8.125 1.066406 -8.515625 1.265625 -8.859375 C 1.472656 -9.210938 1.757812 -9.484375 2.125 -9.671875 C 2.488281 -9.867188 2.882812 -9.96875 3.3125 -9.96875 C 3.851562 -9.96875 4.320312 -9.828125 4.71875 -9.546875 C 5.113281 -9.273438 5.492188 -8.890625 5.859375 -8.390625 L 5.078125 -7.78125 C 4.867188 -8.050781 4.679688 -8.265625 4.515625 -8.421875 C 4.359375 -8.585938 4.175781 -8.71875 3.96875 -8.8125 C 3.769531 -8.914062 3.546875 -8.96875 3.296875 -8.96875 C 3.023438 -8.96875 2.789062 -8.910156 2.59375 -8.796875 C 2.394531 -8.679688 2.242188 -8.53125 2.140625 -8.34375 C 2.035156 -8.15625 1.984375 -7.953125 1.984375 -7.734375 C 1.984375 -7.429688 2.070312 -7.144531 2.25 -6.875 C 2.425781 -6.601562 2.6875 -6.34375 3.03125 -6.09375 C 3.757812 -5.570312 4.316406 -5.140625 4.703125 -4.796875 C 5.097656 -4.453125 5.414062 -4.082031 5.65625 -3.6875 C 5.894531 -3.289062 6.015625 -2.851562 6.015625 -2.375 C 6.015625 -1.914062 5.894531 -1.484375 5.65625 -1.078125 C 5.414062 -0.679688 5.085938 -0.359375 4.671875 -0.109375 C 4.253906 0.128906 3.789062 0.25 3.28125 0.25 Z M 3.28125 0.25 "/></g></g><g clip-rule="nonzero" clip-path="url(#d38667f5ef)"><path style="fill:none;stroke-width:0.1;stroke-linecap:butt;stroke-linejoin:miter;stroke:#000000;stroke-opacity:1;stroke-miterlimit:10;" d="M 181.267228 52.737419 C 199.712046 44.55255 220.08221 50.160701 237.564354 58.762392 C 257.010351 68.955585 276.918432 83.73382 284.889366 106.962175 C 288.47051 116.473296 286.121587 127.538026 279.960479 134.965037 C 275.108607 139.550079 268.254374 138.26172 262.439828 137.617541 C 249.270459 134.472429 241.184005 121.437268 230.941163 112.911362 C 222.08457 104.233886 212.611866 94.798551 200.597705 92.411297 C 189.89278 90.440866 180.574104 98.322591 173.719871 106.50746 C 163.361508 120.679409 156.853837 137.73122 151.770923 154.934602 C 148.459327 169.940195 141.41256 184.263715 142.259712 200.102952 C 141.258532 185.476288 137.484854 171.266447 137.138291 156.60189 C 136.483673 137.655434 138.640061 118.633192 142.91433 100.330916 C 150.731236 80.702387 162.860918 61.301217 181.267228 52.737419 Z M 181.267228 52.737419 " transform="matrix(0.101443,0,0,0.103087,161.338309,161.715825)"/><path style=" stroke:none;fill-rule:nonzero;fill:#000000;fill-opacity:1;" d="M 179.726562 167.152344 C 181.597656 166.308594 183.664062 166.886719 185.4375 167.773438 C 187.410156 168.824219 189.429688 170.347656 190.238281 172.742188 C 190.601562 173.722656 190.363281 174.863281 189.738281 175.628906 C 189.246094 176.101562 188.550781 175.96875 187.960938 175.902344 C 186.625 175.578125 185.804688 174.234375 184.765625 173.355469 C 183.867188 172.460938 182.90625 171.488281 181.6875 171.242188 C 180.601562 171.039062 179.65625 171.851562 178.960938 172.695312 C 177.910156 174.15625 177.25 175.914062 176.734375 177.6875 C 176.398438 179.234375 175.683594 180.710938 175.769531 182.34375 C 175.667969 180.835938 175.285156 179.371094 175.25 177.859375 C 175.183594 175.90625 175.402344 173.945312 175.835938 172.058594 C 176.628906 170.035156 177.859375 168.035156 179.726562 167.152344 Z M 179.726562 167.152344 "/></g><path style="fill:none;stroke-width:0.1;stroke-linecap:butt;stroke-linejoin:miter;stroke:#000000;stroke-opacity:1;stroke-miterlimit:10;" d="M 349.46548 65.279972 C 362.788877 63.574791 376.843905 69.4103 385.816018 80.588709 C 391.900113 88.887256 395.981847 99.383593 395.904833 110.220966 C 394.711118 123.369806 388.781052 136.367075 378.807758 143.945657 C 367.101653 153.191528 351.082771 155.124066 337.874896 148.720164 C 318.274871 140.421616 306.87682 112.380862 316.965635 91.198724 C 322.626153 76.799418 335.680001 67.401975 349.46548 65.279972 Z M 349.46548 65.279972 " transform="matrix(0.101443,0,0,0.103087,161.338309,161.715825)"/><path style=" stroke:none;fill-rule:nonzero;fill:#000000;fill-opacity:1;" d="M 196.789062 168.445312 C 198.140625 168.269531 199.566406 168.871094 200.476562 170.023438 C 201.09375 170.878906 201.507812 171.960938 201.5 173.078125 C 201.378906 174.433594 200.777344 175.773438 199.765625 176.554688 C 198.578125 177.507812 196.953125 177.707031 195.613281 177.046875 C 193.625 176.191406 192.46875 173.300781 193.492188 171.117188 C 194.066406 169.632812 195.390625 168.664062 196.789062 168.445312 Z M 196.789062 168.445312 "/><g clip-rule="nonzero" clip-path="url(#5dba1aa907)"><path style="fill:none;stroke-width:0.1;stroke-linecap:butt;stroke-linejoin:miter;stroke:#000000;stroke-opacity:1;stroke-miterlimit:10;" d="M 488.475483 141.823654 C 489.245621 141.785761 490.054267 141.747868 490.862912 141.785761 C 490.51635 149.591701 492.364682 157.397641 491.209475 165.165688 C 489.361142 178.541886 484.509269 191.122332 479.272328 203.210171 C 467.72025 231.781427 445.92533 255.388711 419.509579 266.529227 C 407.379897 271.265841 392.978307 270.924805 382.04234 262.777829 C 364.367661 249.970024 350.466661 230.379389 344.382566 207.795214 C 340.531874 195.593696 340.416353 180.929139 347.039544 169.864409 C 350.35114 165.014116 354.817943 159.59543 360.786517 159.974359 C 366.986132 160.618538 372.492622 164.748866 376.227794 170.129659 C 385.007373 182.937463 386.855705 199.610345 394.095008 213.289686 C 400.140595 222.118734 409.921354 232.615071 420.780307 227.461635 C 433.834155 221.322983 444.808629 210.864539 455.43654 200.633453 C 468.836951 187.825649 478.194134 170.698053 485.62597 153.039956 C 487.12774 149.515915 488.167427 145.726624 488.475483 141.823654 Z M 488.475483 141.823654 " transform="matrix(0.101443,0,0,0.103087,161.338309,161.715825)"/></g><g clip-rule="nonzero" clip-path="url(#1fb81a4978)"><path style=" stroke:none;fill-rule:nonzero;fill:#000000;fill-opacity:1;" d="M 210.890625 176.335938 C 210.96875 176.332031 211.050781 176.328125 211.132812 176.332031 C 211.097656 177.136719 211.285156 177.941406 211.167969 178.742188 C 210.980469 180.121094 210.488281 181.417969 209.957031 182.664062 C 208.785156 185.609375 206.574219 188.042969 203.894531 189.191406 C 202.664062 189.679688 201.203125 189.644531 200.09375 188.804688 C 198.300781 187.484375 196.890625 185.464844 196.273438 183.136719 C 195.882812 181.878906 195.871094 180.367188 196.542969 179.226562 C 196.878906 178.726562 197.332031 178.167969 197.9375 178.207031 C 198.566406 178.273438 199.125 178.699219 199.503906 179.253906 C 200.394531 180.574219 200.582031 182.292969 201.316406 183.703125 C 201.929688 184.613281 202.921875 185.695312 204.023438 185.164062 C 205.347656 184.53125 206.460938 183.453125 207.539062 182.398438 C 208.898438 181.078125 209.847656 179.3125 210.601562 177.492188 C 210.753906 177.128906 210.859375 176.738281 210.890625 176.335938 Z M 210.890625 176.335938 "/></g><g clip-rule="nonzero" clip-path="url(#029da5f855)"><path style="fill:none;stroke-width:0.1;stroke-linecap:butt;stroke-linejoin:miter;stroke:#000000;stroke-opacity:1;stroke-miterlimit:10;" d="M 162.398835 223.823915 C 170.177234 216.510583 181.613791 217.192656 190.662918 220.868268 C 199.712046 225.150167 209.30027 228.484743 217.579259 234.547609 C 230.440573 243.717694 242.724282 253.986673 253.698756 265.809261 C 266.136493 276.949778 277.650064 289.416545 287.546344 303.39903 C 294.824153 312.948044 302.448524 324.08856 301.87092 337.275293 C 296.47995 356.524892 281.654784 370.621055 266.213507 380.018498 C 245.766329 391.613729 222.931722 396.198771 201.059788 403.284745 C 191.587084 406.695107 181.652298 407.945574 171.833031 409.120254 C 160.666023 409.764433 149.460507 412.341151 138.332006 410.143362 C 145.455787 404.38364 154.119846 401.806922 161.936751 397.525023 C 184.463303 386.725543 205.642112 372.856737 227.59106 360.731005 C 236.909736 355.729141 245.997371 349.363132 251.311326 339.169939 C 251.041778 336.934257 250.733723 334.698575 250.464174 332.462893 C 244.226052 325.452705 236.524667 320.412947 228.59224 316.168941 C 219.312071 324.694846 208.607146 331.174534 200.058608 340.685655 C 176.646397 360.086826 150.731236 375.281884 125.740241 392.068443 C 92.162202 413.061117 60.355481 437.539938 26.122824 457.320038 C 24.120464 458.115789 22.079597 458.722075 19.961716 459.17679 C 33.131084 443.223874 48.456841 429.696105 61.395168 413.515832 C 80.071027 391.7653 98.746886 370.014769 118.269898 349.135774 C 138.832596 327.0821 158.856197 304.384246 177.917126 280.739069 C 169.869178 272.440521 159.510815 264.824046 157.046372 252.12992 C 154.735956 242.543014 156.083699 231.213033 162.398835 223.823915 Z M 162.398835 223.823915 " transform="matrix(0.101443,0,0,0.103087,161.338309,161.715825)"/></g><g clip-rule="nonzero" clip-path="url(#a21b3ecb19)"><path style=" stroke:none;fill-rule:nonzero;fill:#000000;fill-opacity:1;" d="M 177.8125 184.789062 C 178.601562 184.035156 179.761719 184.105469 180.679688 184.484375 C 181.597656 184.925781 182.570312 185.269531 183.410156 185.894531 C 184.714844 186.839844 185.960938 187.898438 187.074219 189.117188 C 188.335938 190.265625 189.503906 191.550781 190.507812 192.992188 C 191.246094 193.976562 192.019531 195.125 191.960938 196.484375 C 191.414062 198.46875 189.910156 199.921875 188.34375 200.890625 C 186.269531 202.085938 183.953125 202.558594 181.734375 203.289062 C 180.773438 203.640625 179.765625 203.769531 178.769531 203.890625 C 177.636719 203.957031 176.5 204.222656 175.371094 203.996094 C 176.09375 203.402344 176.972656 203.136719 177.765625 202.695312 C 180.050781 201.582031 182.199219 200.152344 184.425781 198.902344 C 185.371094 198.386719 186.292969 197.730469 186.832031 196.679688 C 186.804688 196.449219 186.773438 196.21875 186.746094 195.988281 C 186.113281 195.265625 185.332031 194.746094 184.527344 194.308594 C 183.585938 195.1875 182.5 195.855469 181.632812 196.835938 C 179.257812 198.835938 176.628906 200.402344 174.09375 202.132812 C 170.6875 204.296875 167.460938 206.820312 163.988281 208.859375 C 163.785156 208.941406 163.578125 209.003906 163.363281 209.050781 C 164.699219 207.40625 166.253906 206.011719 167.566406 204.34375 C 169.460938 202.101562 171.355469 199.859375 173.335938 197.707031 C 175.421875 195.433594 177.453125 193.09375 179.386719 190.65625 C 178.570312 189.800781 177.519531 189.015625 177.269531 187.707031 C 177.035156 186.71875 177.171875 185.550781 177.8125 184.789062 Z M 177.8125 184.789062 "/></g></g></svg>